<svg id="Layer_1" data-name="Layer 1" xmlns="http://www.w3.org/2000/svg" viewBox="0 0 228.69 40.24"><defs><style>.cls-1{fill:#fff;}.cls-2{fill:#ed1c24;}.cls-3{fill:#0072bc;}</style></defs><path class="cls-1" d="M4.2,34A1.24,1.24,0,0,0,3,33.32a1.15,1.15,0,0,0-1.22,1c0,.57.56.87,1,1l.53.2c1,.41,1.81,1,1.81,2.21A2.26,2.26,0,0,1,2.82,40.1,2.27,2.27,0,0,1,.57,38.05l.92-.19a1.38,1.38,0,1,0,2.76,0c0-.79-.63-1.13-1.26-1.39l-.51-.22C1.65,35.86.9,35.38.9,34.36a2,2,0,0,1,2.15-1.89,2.1,2.1,0,0,1,1.88,1.1Z"/><path class="cls-1" d="M13.62,36.28a3.83,3.83,0,0,1-7.65,0,3.83,3.83,0,0,1,7.65,0Zm-.91,0a2.92,2.92,0,1,0-5.83,0,2.92,2.92,0,1,0,5.83,0Z"/><path class="cls-1" d="M15.75,39.11H18v.83H14.84V32.62h.91Z"/><path class="cls-1" d="M19.68,32.62v4.32c0,1.2.36,2.3,1.76,2.3s1.77-1.1,1.77-2.3V32.62h.91v4.63a2.68,2.68,0,1,1-5.35,0V32.62Z"/><path class="cls-1" d="M27.67,39.94h-.91V33.46H25v-.84h4.38v.84H27.67Z"/><path class="cls-1" d="M31.34,39.94h-.91V32.62h.91Z"/><path class="cls-1" d="M40.17,36.28a3.83,3.83,0,0,1-7.65,0,3.83,3.83,0,0,1,7.65,0Zm-.91,0a2.92,2.92,0,1,0-5.83,0,2.92,2.92,0,1,0,5.83,0Z"/><path class="cls-1" d="M41.3,32.27,46.78,38V32.62h.91v7.62l-5.48-5.75v5.45H41.3Z"/><path class="cls-1" d="M52.56,34a1.24,1.24,0,0,0-1.17-.69,1.15,1.15,0,0,0-1.22,1c0,.57.56.87,1,1l.52.2c1,.41,1.81,1,1.81,2.21a2.25,2.25,0,0,1-2.33,2.28,2.29,2.29,0,0,1-2.26-2.05l.92-.19a1.38,1.38,0,1,0,2.76,0c0-.79-.63-1.13-1.26-1.39l-.5-.22c-.83-.35-1.59-.83-1.59-1.85a2,2,0,0,1,2.15-1.89,2.1,2.1,0,0,1,1.88,1.1Z"/><path class="cls-1" d="M58.88,33.46v2.06h2.54v.83H58.88v3.59H58V32.62h3.54v.84Z"/><path class="cls-1" d="M70,36.28a3.83,3.83,0,0,1-7.65,0,3.83,3.83,0,0,1,7.65,0Zm-.91,0a2.92,2.92,0,1,0-5.83,0,2.92,2.92,0,1,0,5.83,0Z"/><path class="cls-1" d="M75.8,39.94H74.69l-2.15-3.09h-.38v3.09h-.91V32.62h1.11a3.88,3.88,0,0,1,1.93.34,2,2,0,0,1,.95,1.75,2,2,0,0,1-1.75,2Zm-3.64-3.85h.29c.93,0,1.94-.18,1.94-1.34s-1.08-1.31-2-1.31h-.25Z"/><path class="cls-1" d="M84.28,35.57v-3h.91v7.32h-.91V36.43H80.81v3.51H79.9V32.62h.91v3Z"/><path class="cls-1" d="M86.84,32.62h3.92v.84h-3v2h2.93v.83H87.75v2.77h3v.83H86.84Z"/><path class="cls-1" d="M93.26,38.11l-.84,1.83h-1l3.48-7.63,3.49,7.63h-1l-.83-1.83Zm1.67-3.8-1.3,3h2.6Z"/><path class="cls-1" d="M100.27,39.11h2.22v.83H99.36V32.62h.91Z"/><path class="cls-1" d="M105.1,39.94h-.92V33.46h-1.73v-.84h4.38v.84H105.1Z"/><path class="cls-1" d="M112.19,35.57v-3h.91v7.32h-.91V36.43h-3.48v3.51h-.91V32.62h.91v3Z"/><path class="cls-1" d="M123.19,34a3,3,0,1,0,0,4.49v1.07a4,4,0,0,1-1.92.52,3.78,3.78,0,0,1-3.8-3.78,3.84,3.84,0,0,1,3.88-3.85,3.5,3.5,0,0,1,1.84.49Z"/><path class="cls-1" d="M125.64,38.11l-.83,1.83h-1l3.49-7.63,3.49,7.63h-1L129,38.11Zm1.68-3.8-1.3,3h2.6Z"/><path class="cls-1" d="M136.29,39.94h-1.1L133,36.85h-.38v3.09h-.91V32.62h1.1a3.86,3.86,0,0,1,1.93.34,2,2,0,0,1,1,1.75,2,2,0,0,1-1.75,2Zm-3.63-3.85H133c.93,0,1.94-.18,1.94-1.34s-1.09-1.31-2-1.31h-.24Z"/><path class="cls-1" d="M137.34,32.62h3.92v.84h-3v2h2.92v.83h-2.92v2.77h3v.83h-3.92Z"/><path class="cls-1" d="M146.76,39.94h-.91V32.62h1c2.25,0,3,.78,3,2.12,0,1.54-1.18,2.13-2.56,2.13h-.52Zm0-3.88h.29c.93,0,1.93-.18,1.93-1.34s-1.08-1.28-2-1.28h-.24Z"/><path class="cls-1" d="M155.51,39.94h-1.1l-2.15-3.09h-.38v3.09H151V32.62h1.1A3.86,3.86,0,0,1,154,33a2,2,0,0,1,1,1.75,2,2,0,0,1-1.75,2Zm-3.63-3.85h.29c.93,0,1.94-.18,1.94-1.34s-1.09-1.31-2-1.31h-.24Z"/><path class="cls-1" d="M163.7,36.28a3.83,3.83,0,0,1-7.65,0,3.83,3.83,0,0,1,7.65,0Zm-.91,0a2.92,2.92,0,1,0-5.83,0,2.92,2.92,0,1,0,5.83,0Z"/><path class="cls-1" d="M165.81,33.46v2.06h2.54v.83h-2.54v3.59h-.91V32.62h3.54v.84Z"/><path class="cls-1" d="M169.83,32.62h3.93v.84h-3v2h2.93v.83h-2.93v2.77h3v.83h-3.93Z"/><path class="cls-1" d="M178.46,34a1.26,1.26,0,0,0-1.18-.69,1.15,1.15,0,0,0-1.22,1c0,.57.57.87,1,1l.52.2c1,.41,1.81,1,1.81,2.21a2.25,2.25,0,0,1-2.33,2.28,2.29,2.29,0,0,1-2.26-2.05l.92-.19a1.38,1.38,0,1,0,2.76,0c0-.79-.63-1.13-1.25-1.39l-.51-.22c-.83-.35-1.59-.83-1.59-1.85a2,2,0,0,1,2.15-1.89,2.08,2.08,0,0,1,1.88,1.1Z"/><path class="cls-1" d="M184,34a1.24,1.24,0,0,0-1.17-.69,1.15,1.15,0,0,0-1.22,1c0,.57.56.87,1,1l.53.2c1,.41,1.81,1,1.81,2.21a2.3,2.3,0,0,1-4.59.23l.92-.19a1.36,1.36,0,0,0,1.41,1.38A1.38,1.38,0,0,0,184,37.82c0-.79-.63-1.13-1.26-1.39l-.51-.22c-.83-.35-1.58-.83-1.58-1.85a2,2,0,0,1,2.15-1.89,2.08,2.08,0,0,1,1.87,1.1Z"/><path class="cls-1" d="M187.16,39.94h-.91V32.62h.91Z"/><path class="cls-1" d="M196,36.28a3.83,3.83,0,0,1-7.65,0,3.83,3.83,0,0,1,7.65,0Zm-.91,0a2.92,2.92,0,1,0-5.83,0,2.92,2.92,0,1,0,5.83,0Z"/><path class="cls-1" d="M197.12,32.27,202.6,38V32.62h.91v7.62L198,34.49v5.45h-.91Z"/><path class="cls-1" d="M206.18,38.11l-.84,1.83h-1l3.49-7.63,3.49,7.63h-1l-.83-1.83Zm1.67-3.8-1.3,3h2.6Z"/><path class="cls-1" d="M213.19,39.11h2.22v.83h-3.13V32.62h.91Z"/><path class="cls-1" d="M219.58,34a1.24,1.24,0,0,0-1.17-.69,1.15,1.15,0,0,0-1.22,1c0,.57.56.87,1,1l.52.2c1,.41,1.81,1,1.81,2.21a2.25,2.25,0,0,1-2.33,2.28A2.29,2.29,0,0,1,216,38.05l.92-.19a1.38,1.38,0,1,0,2.76,0c0-.79-.63-1.13-1.26-1.39l-.5-.22c-.83-.35-1.59-.83-1.59-1.85a2,2,0,0,1,2.15-1.89,2.1,2.1,0,0,1,1.88,1.1Z"/><path class="cls-1" d="M49.25,19.28a5.53,5.53,0,0,0,.28,2.35c.19.31.57.44,1.32.47l1.51.09v.94c-1.64-.06-3.11-.09-4.55-.09s-3,0-4.64.09v-.94l1.5-.09c.75,0,1.13-.16,1.32-.47a5.53,5.53,0,0,0,.28-2.35v-7c-.37,0-1.22-.06-2.6-.06H36.33c-1.38,0-2.23,0-2.6.06v7A5.53,5.53,0,0,0,34,21.63c.19.31.56.44,1.31.47l1.51.09v.94c-1.63-.06-3.1-.09-4.55-.09s-3,0-4.64.09v-.94l1.51-.09c.75,0,1.12-.16,1.31-.47a5.48,5.48,0,0,0,.29-2.35V5.19a5.51,5.51,0,0,0-.29-2.35c-.19-.31-.56-.44-1.31-.47l-1.51-.09V1.34c1.63.06,3.11.09,4.64.09s2.92,0,4.55-.09v.94l-1.51.09c-.75,0-1.12.16-1.31.47a5.56,5.56,0,0,0-.28,2.35v5.59c.37,0,1.22.06,2.6.06h7.34c1.38,0,2.23,0,2.6-.06V5.19A5.56,5.56,0,0,0,46,2.84c-.19-.31-.57-.44-1.32-.47l-1.5-.09V1.34c1.63.06,3.1.09,4.64.09s2.91,0,4.55-.09v.94l-1.51.09c-.75,0-1.13.16-1.32.47a5.56,5.56,0,0,0-.28,2.35Z"/><path class="cls-1" d="M55.7,8.76a4.33,4.33,0,0,0-.23-1.88c-.15-.25-.45-.35-1-.38l-1.2-.07V5.68c.7,0,1.4,0,2.1,0l2.14,0c2.18,0,4.49-.07,5.92-.07,1.13,0,2.26,0,3.24.07a16.53,16.53,0,0,0-.4,3.82h-.88V7.93c0-.32,0-.6-.23-.67a15.28,15.28,0,0,0-4.92-.53,8.57,8.57,0,0,0-2.11.2v6.7c.81,0,1.71.08,2.92.08a7.08,7.08,0,0,0,2.66-.28,1,1,0,0,0,.2-.65L64,11.47h.75c0,1-.07,2-.07,2.91s0,1.88.07,2.79H64l-.12-1.48c0-.33-.08-.56-.2-.63a6.31,6.31,0,0,0-2.66-.3c-1.21,0-2.14,0-2.92.07v7a8.57,8.57,0,0,0,2.11.2,23.23,23.23,0,0,0,5.07-.32c.38-.2.71-1.31.88-2.81H67a21.54,21.54,0,0,0-.4,4.11c-1.11,0-3.09.1-5,.08S57.76,23,56.2,23c-1,0-1.78.05-2.68.08v-.76l.9-.07c.6-.05.9-.13,1-.38A4.33,4.33,0,0,0,55.7,20Z"/><path class="cls-1" d="M70.5,8.76a4.55,4.55,0,0,0-.22-1.88c-.15-.25-.46-.33-1.06-.38l-1.1-.07V5.68c1.1,0,2.11.07,3,.07.45,0,.9,0,1.35-.07l12,14.8h.08V8.76a4.49,4.49,0,0,0-.23-1.88c-.15-.25-.45-.33-1-.38l-1.11-.07V5.68c1,0,2,.07,2.91.07s1.91,0,3-.07v.75L87,6.5c-.6,0-.9.13-1,.38a4.33,4.33,0,0,0-.23,1.88V22.61c0,.31.05.63.07.93l-2.25-.4L71.71,8.46h0V20a4.55,4.55,0,0,0,.22,1.88c.15.25.45.33,1.06.38l1.1.07v.76c-1.1,0-2-.08-3-.08s-1.91.05-2.91.08v-.76l1.1-.07c.6-.05.91-.13,1.06-.38A4.55,4.55,0,0,0,70.5,20Z"/><path class="cls-1" d="M93.66,20a4.55,4.55,0,0,0,.22,1.88c.15.25.46.35,1.06.38l1.2.07v.76c-1.3-.05-2.48-.08-3.64-.08s-2.4,0-3.71.08v-.76L90,22.29c.6,0,.9-.13,1-.38A4.38,4.38,0,0,0,91.27,20V8.76a4.38,4.38,0,0,0-.22-1.88c-.15-.25-.45-.33-1-.38l-1-.07V5.68c1.33,0,2.78.07,4.26.07s2.94,0,4.39-.07c4-.08,5.07,2,5.07,3.76,0,2.73-2.46,4.37-4.89,4.84l5.7,7.43a1.92,1.92,0,0,0,1.53.65v.76c-.66,0-1.23-.08-1.81-.08s-1.13.05-1.71.08c-.32-.48-.7-.91-1-1.36l-4.61-6.2c-.41-.55-.88-1-1.31-1.55l.15-.3a9.28,9.28,0,0,0,2.21-.11,3.69,3.69,0,0,0,3.26-3.51c0-2.71-2-3.46-4-3.46a9.59,9.59,0,0,0-2.56.3Z"/><path class="cls-1" d="M112.43,14.48,115,10.39c1-1.58,1.88-3.16,2.71-4.77h2V6a51,51,0,0,0-6.17,8.91,4.31,4.31,0,0,0-.35,1.88V20a4.55,4.55,0,0,0,.22,1.88c.15.25.45.35,1.06.38l1.2.07v.76c-1.3-.05-2.48-.08-3.64-.08s-2.41,0-3.71.08v-.76l1.2-.07c.6,0,.9-.13,1.06-.38a4.55,4.55,0,0,0,.22-1.88V16.47a2,2,0,0,0-.22-1L107.48,10c-1.3-2.26-2.58-3.19-3.21-3.26l-.73-.08V6l2.89-.61c.5-.1.88.4,1.31.93a11.35,11.35,0,0,1,1.1,1.63Z"/><path class="cls-1" d="M137.79,6.54l-.19-1.79c-.09-.84-.22-1.16-1.38-1.88a7,7,0,0,0-3.42-.75,4.47,4.47,0,0,0-4.64,4.58c0,2.13,1.26,3.45,5.18,3.89,4.42.47,7.21,1.57,7.21,5.14,0,5.37-4.8,7.94-9.47,7.94a13.52,13.52,0,0,1-5.37-1.19,28.33,28.33,0,0,0,.22-4.8h1l.25,2.1c.16,1.32,2.63,2.51,5.11,2.51,2.83,0,5.62-1.73,5.62-4.83s-2.32-3.83-5.52-4.21c-4.93-.56-6.87-2.1-6.87-5.36,0-4.86,4.26-7.09,8-7.09a14.72,14.72,0,0,1,5.68,1.32,21.57,21.57,0,0,0-.44,4.42Z"/><path class="cls-1" d="M157,22.19a12.24,12.24,0,0,1-5.47,1.35c-6,0-10.08-3.43-10.08-9.13a8.38,8.38,0,0,1,3.06-6.75,11.29,11.29,0,0,1,7.25-2.41,18.48,18.48,0,0,1,5.8,1,18.73,18.73,0,0,0-.48,3.81h-.78V8.28c0-.7-1-1.13-2.16-1.55a9.12,9.12,0,0,0-2.8-.43c-4.72,0-7.21,3.44-7.21,7.71,0,5,3.29,8.18,8.26,8.18a9.47,9.47,0,0,0,5.09-1.51l.23.25Z"/><path class="cls-1" d="M176.2,20a4.55,4.55,0,0,0,.22,1.88c.15.25.45.35,1.06.38l1.2.07v.76c-1.3-.05-2.48-.08-3.64-.08s-2.41,0-3.71.08v-.76l1.2-.07c.6,0,.91-.13,1.06-.38a4.55,4.55,0,0,0,.22-1.88v-5.6c-.3,0-1,0-2.08,0h-5.87c-1.11,0-1.78,0-2.09,0V20a4.33,4.33,0,0,0,.23,1.88c.15.25.45.35,1.05.38l1.21.07v.76c-1.31-.05-2.49-.08-3.64-.08s-2.41,0-3.71.08v-.76l1.2-.07c.6,0,.9-.13,1.06-.38a4.55,4.55,0,0,0,.22-1.88V8.76a4.55,4.55,0,0,0-.22-1.88c-.16-.25-.46-.35-1.06-.38l-1.2-.07V5.68c1.3,0,2.48.07,3.71.07s2.33,0,3.64-.07v.75l-1.21.07c-.6,0-.9.13-1.05.38a4.33,4.33,0,0,0-.23,1.88v4.47c.31,0,1,0,2.09,0h5.87c1.1,0,1.78,0,2.08,0V8.76a4.55,4.55,0,0,0-.22-1.88c-.15-.25-.46-.35-1.06-.38l-1.2-.07V5.68c1.3,0,2.48.07,3.71.07s2.34,0,3.64-.07v.75l-1.2.07c-.61,0-.91.13-1.06.38a4.55,4.55,0,0,0-.22,1.88Z"/><path class="cls-1" d="M182,8.76a4.55,4.55,0,0,0-.22-1.88c-.15-.25-.46-.35-1.06-.38l-1.21-.07V5.68c.71,0,1.41,0,2.12,0l2.13,0c2.18,0,4.49-.07,5.92-.07,1.13,0,2.26,0,3.24.07a16.53,16.53,0,0,0-.4,3.82h-.88V7.93c0-.32,0-.6-.23-.67a15.28,15.28,0,0,0-4.92-.53,8.44,8.44,0,0,0-2.1.2v6.7c.8,0,1.7.08,2.91.08a7.08,7.08,0,0,0,2.66-.28,1,1,0,0,0,.2-.65l.12-1.31H191c0,1-.08,2-.08,2.91s.05,1.88.08,2.79h-.76l-.12-1.48c0-.33-.08-.56-.2-.63a6.31,6.31,0,0,0-2.66-.3c-1.21,0-2.14,0-2.91.07v7a8.44,8.44,0,0,0,2.1.2,23.23,23.23,0,0,0,5.07-.32c.38-.2.71-1.31.88-2.81h.88a21.54,21.54,0,0,0-.4,4.11c-1.11,0-3.09.1-4.95.08S184,23,182.46,23c-1,0-1.78.05-2.68.08v-.76l.9-.07c.6-.05.91-.13,1.06-.38A4.55,4.55,0,0,0,182,20Z"/><path class="cls-1" d="M199.37,20a4.33,4.33,0,0,0,.23,1.88c.15.25.45.35,1.05.38l1.21.07v.76c-1.31-.05-2.49-.08-3.64-.08s-2.41,0-3.72.08v-.76l1.21-.07c.6,0,.9-.13,1-.38A4.33,4.33,0,0,0,197,20V8.76a4.33,4.33,0,0,0-.23-1.88c-.15-.25-.45-.35-1-.38l-1.21-.07V5.68c1.31,0,2.49.07,3.72.07s2.33,0,3.64-.07v.75l-1.21.07c-.6,0-.9.13-1.05.38a4.33,4.33,0,0,0-.23,1.88Z"/><path class="cls-1" d="M204.91,8.76a4.55,4.55,0,0,0-.22-1.88c-.15-.25-.45-.33-1.05-.38l-1.11-.07V5.68c1.11,0,2.11.07,3,.07.45,0,.9,0,1.35-.07l12,14.8H219V8.76a4.33,4.33,0,0,0-.23-1.88c-.15-.25-.45-.33-1.05-.38l-1.1-.07V5.68c1,0,2,.07,2.9.07s1.91,0,3-.07v.75l-1.11.07c-.6,0-.9.13-1.05.38a4.33,4.33,0,0,0-.23,1.88V22.61c0,.31,0,.63.08.93l-2.26-.4L206.12,8.46h-.05V20a4.55,4.55,0,0,0,.22,1.88c.15.25.46.33,1.06.38l1.1.07v.76c-1.1,0-2-.08-3-.08s-1.9.05-2.91.08v-.76l1.11-.07c.6-.05.9-.13,1.05-.38a4.55,4.55,0,0,0,.22-1.88Z"/><path class="cls-1" d="M228.65,7.37a2.43,2.43,0,0,1-2.88,2.78A2.38,2.38,0,0,1,224,8.46a2.42,2.42,0,1,1,4.7-1.09Zm-4.5.42a2.12,2.12,0,1,0,2.11-2.12A2.11,2.11,0,0,0,224.15,7.79Zm2-1.4c.46,0,1,.06,1,.66,0,.42-.36.64-.74.69h0c.3,0,.48.44.58.69a2.15,2.15,0,0,0,.21.4.35.35,0,0,0,.26.08V9h-.18a.66.66,0,0,1-.41-.08,1.49,1.49,0,0,1-.28-.51,2.27,2.27,0,0,0-.27-.54c-.11-.11-.29-.09-.43-.09h-.12v.86c0,.17,0,.24.19.25h.14V9h-1V8.92h.1c.17,0,.22,0,.22-.2v-2c0-.17-.1-.19-.22-.19h-.11V6.39Zm-.35,1.29H226c.42,0,.83-.1.83-.6s-.25-.57-.63-.57H226c-.2,0-.19.13-.19.29Z"/><rect class="cls-1" width="24.77" height="24.18"/><path class="cls-2" d="M23.92,2.62V1H1V18.36c3.21,0,6.7-2.08,10.19-7.55S19.8,2.62,23.92,2.62Z"/><path class="cls-3" d="M1,21.54V23.2H23.92V5.79c-3.21,0-6.71,2.09-10.19,7.55S5.13,21.54,1,21.54Z"/></svg>