<svg xmlns="http://www.w3.org/2000/svg" viewBox="0 0 284 151">
  <g>
    <g>
      <path style="fill:#69b42d;"
            d="M8,45.4a8,8,0,0,0,8.09-7.81v-.1A8.13,8.13,0,0,0,8,29.31H8a7.94,7.94,0,0,0-8,7.87v.31A7.76,7.76,0,0,0,7.62,45.4Z"/>
      <path style="fill:#005091;"
            d="M261.45,99.21c3.19,0,5.27-1.73,5.27-5.18V75.39c0-7,4.91-11.18,13.27-11.18h4V53.76h-2.9c-6.46,0-10.91,2.19-14.18,6.9h-.19v-6.9H256.14V94C256.14,97.48,258.24,99.21,261.45,99.21Zm-40.81-10a13,13,0,0,1-12.81-13.11v-.16a12.82,12.82,0,1,1,25.62-1,8.51,8.51,0,0,1,0,1,13,13,0,0,1-12.62,13.29h-.23Zm-.91,10a15.48,15.48,0,0,0,13.36-6.73h.18V94c0,3.45,2.1,5.18,5.28,5.18s5.27-1.73,5.27-5.18V53.76H233.23v5.6h-.18a15.51,15.51,0,0,0-13.36-6.72c-12.27,0-22.63,10.64-22.63,23.27s10.36,23.3,22.63,23.3Zm-38,0c3.1,0,5.19-1.64,5.28-4.91v-61H176.43v61c.09,3.27,2.18,4.91,5.26,4.91Zm-33.89,0A23.49,23.49,0,0,0,167.74,88l-8.18-5.82a13.6,13.6,0,0,1-11.72,7A13,13,0,0,1,135,76.11V76a13,13,0,0,1,12.64-13.28h.14a13.55,13.55,0,0,1,11.72,7l8.18-5.82a23.38,23.38,0,1,0-19.9,35.36Zm-54.18-10A13,13,0,0,1,80.81,76.12v-.18a12.82,12.82,0,0,1,25.63-1c0,.33,0,.67,0,1A13,13,0,0,1,93.79,89.21h-.17Zm-50.17,10c3.63,0,6.09-1.64,8.09-6.64L66.81,53.76H55.63L43.91,85.41h-.19L32.06,53.76H20.37l15.17,38.9c1.91,4.91,4.27,6.55,7.91,6.55Zm-35.35,0c3.17,0,5.27-1.73,5.27-5.18V53.76H2.82V94c0,3.45,2.09,5.18,5.28,5.18Zm85.52,0A23.27,23.27,0,1,0,70.12,75.94,23.27,23.27,0,0,0,93.66,99.21Z"/>
    </g>
  </g>
</svg>
